# xmcd
#
# Track frame offsets:
#	150
#	11129
#	22854
#	33984
#	44520
#	57221
#	68519
#	80591
#	93551
#	102804
#	112322
#	123689
#	136773
#	148571
#	161706
#	174030
#	187116
#	196762
#	209616
#	220306
#	231007
#	241726
#	251818
#
# Disc length: 3531 seconds
#
# Revision: 1
# Processed by: cddbd v1.5.2PL0 Copyright (c) Steve Scherf et al.
# Submitted via: audiograbber 1.83.01
#
DISCID=450dc917
DTITLE=Various Artist - Stompin' 34: More Jumpin' R 'n' B Pounders
DYEAR=1900
DGENRE=Blues
TTITLE0=Buster Smith and His Heatwaves - Til Broad Daylight
TTITLE1=Buster Smith and His Heatwaves - That's Your Lovin' Baby
TTITLE2=Blind Billy Tate - Love Is A Crazy Thing
TTITLE3=Redd Foxx - Real Pretty Mama
TTITLE4=Frank Motley and His Motley Crew - Honkin' At Midnight
TTITLE5=Redd Foxx - Crazy House
TTITLE6=Honey Brown - Ain't No Need
TTITLE7=Peppy Prince - Ain't Nothing Shaking
TTITLE8=Vicki Evans - Don't Talk That Talk To Me
TTITLE9=Jack McVea - Trying To Tell Ya
TTITLE10=Jimmy Witherspoon - Move Me Baby
TTITLE11=Johnny Davis - I'm A Wine Drinker
TTITLE12=Terri Lee - My, My, My
TTITLE13=Hen Gates and Orchestra - Flash
TTITLE14=Dorothea Fleming - I'm Glad You're Leaving Me
TTITLE15=Cousin Joe - Lookin' For My Baby
TTITLE16=Terri Lee - I'm No Good To You
TTITLE17=The Griffin Brothers - I Wanna Go Back
TTITLE18=Jesse Allen - Let's Party
TTITLE19=Edna McGriff - Ooh, Little Daddy
TTITLE20=Davey Jones - The Love I Missed
TTITLE21=Ruben Siggers and His Fabulous Kool Kats - Please Pretty Baby
TTITLE22=Chuck Merrill - Strong, Strong Man
EXTD=
EXTT0=
EXTT1=
EXTT2=
EXTT3=
EXTT4=
EXTT5=
EXTT6=
EXTT7=
EXTT8=
EXTT9=
EXTT10=
EXTT11=
EXTT12=
EXTT13=
EXTT14=
EXTT15=
EXTT16=
EXTT17=
EXTT18=
EXTT19=
EXTT20=
EXTT21=
EXTT22=
PLAYORDER=
